HIERARCHY
ROOT Hips
{
  OFFSET -69.4423 88.0299 51.6846
  CHANNELS 6 Xposition Yposition Zposition Zrotation Xrotation Yrotation
  JOINT Spine
  {
    OFFSET 12.0259 -0.162853 1.93176e-005
    CHANNELS 3 Zrotation Xrotation Yrotation
    JOINT Spine1
    {
      OFFSET 15.3169 -0.0121909 0
      CHANNELS 3 Zrotation Xrotation Yrotation
      JOINT Spine2
      {
        OFFSET 15.3176 -0.0121922 0
        CHANNELS 3 Zrotation Xrotation Yrotation
        JOINT Neck
        {
          OFFSET 19.9142 1.56236 0
          CHANNELS 3 Zrotation Xrotation Yrotation
          JOINT Head
          {
            OFFSET 6.92646 0 0
            CHANNELS 3 Zrotation Xrotation Yrotation
            End Site
            {
              OFFSET 20.7666 0 0
            }
          }
          JOINT LeftShoulder
          {
            OFFSET -4.94072 -1.14703 8.14416
            CHANNELS 3 Zrotation Xrotation Yrotation
            JOINT LeftArm
            {
              OFFSET 14.108 0 -2.74767e-005
              CHANNELS 3 Zrotation Xrotation Yrotation
              JOINT LeftForeArm
              {
                OFFSET 28.5802 -0.0783412 -0.0284884
                CHANNELS 3 Zrotation Xrotation Yrotation
                JOINT LeftHand
                {
                  OFFSET 27.092 0 0
                  CHANNELS 3 Zrotation Xrotation Yrotation
                  End Site
                  {
                    OFFSET 9.55928 -0.186424 0.145352
                  }
                }
              }
            }
          }
          JOINT RightShoulder
          {
            OFFSET -7.15748 -1.33027 -6.24935
            CHANNELS 3 Zrotation Xrotation Yrotation
            JOINT RightArm
            {
              OFFSET 14.108 0 1.82997e-005
              CHANNELS 3 Zrotation Xrotation Yrotation
              JOINT RightForeArm
              {
                OFFSET 28.5802 -0.0707221 2.30684e-005
                CHANNELS 3 Zrotation Xrotation Yrotation
                JOINT RightHand
                {
                  OFFSET 27.092 0 -1.30073e-005
                  CHANNELS 3 Zrotation Xrotation Yrotation
                  End Site
                  {
                    OFFSET 9.55929 -0.186417 -0.145354
                  }
                }
              }
            }
          }
        }
      }
    }
  }
  JOINT LeftUpLeg
  {
    OFFSET 0.00499725 -0.534999 8.837
    CHANNELS 3 Zrotation Xrotation Yrotation
    JOINT LeftLeg
    {
      OFFSET 39.9035 -0.00124594 0.000252775
      CHANNELS 3 Zrotation Xrotation Yrotation
      JOINT LeftFoot
      {
        OFFSET 39.6689 0 0
        CHANNELS 3 Zrotation Xrotation Yrotation
        JOINT LeftToe
        {
          OFFSET 10.1624 13.6296 0
          CHANNELS 3 Zrotation Xrotation Yrotation
          End Site
          {
            OFFSET 8.38147 0 0
          }
        }
      }
    }
  }
  JOINT RightUpLeg
  {
    OFFSET 0.00499725 -0.535 -8.837
    CHANNELS 3 Zrotation Xrotation Yrotation
    JOINT RightLeg
    {
      OFFSET 39.9036 -0.000268477 0.000106433
      CHANNELS 3 Zrotation Xrotation Yrotation
      JOINT RightFoot
      {
        OFFSET 39.6689 1.17892e-005 0
        CHANNELS 3 Zrotation Xrotation Yrotation
        JOINT RightToe
        {
          OFFSET 10.1624 13.6296 0
          CHANNELS 3 Zrotation Xrotation Yrotation
          End Site
          {
            OFFSET 8.38147 0 0
          }
        }
      }
    }
  }
}
MOTION
Frames:	6
Frame Time:	0.0333333
-58.832 89.7038 -96.4211 40.1529 -82.1847 -43.7201 1.89901 2.03935 0.218421 3.79383 4.08533 0.369575 3.79383 4.08532 0.369568 -15.4322 7.36092 -7.54618 55.8082 7.95844 -0.549428 -164.856 6.47921 -92.6686 -12.2543 2.72466 82.3843 -17.2264 1.67719 -11.8234 4.55046 -77.3324 6.52597 -164.806 4.59111 75.5289 -8.11573 6.56217 -77.9458 -24.7322 -3.37607 15.2672 3.1042 84.2987 -3.03197 1.26668 -1.92415 171.145 -19.9071 1.12654 -0.536895 -4.07169 8.41124 0.591784 90 3.18055e-015 1.59028e-015 -15.42 -1.37645 170.169 -63.4415 -0.241536 -0.220801 0.484757 4.47665 0.309001 90 -6.16232e-015 -4.77083e-015 
-58.2157 90.1335 -94.3595 43.5377 -81.696 -41.1433 1.81129 2.26451 0.273945 3.61596 4.53703 0.476804 3.61595 4.53702 0.47679 -14.7394 7.37854 -7.67619 58.2438 7.36896 -0.334028 -165.493 6.52872 -92.7222 -7.04853 2.98472 81.161 -16.2315 1.5378 -11.1667 4.01903 -74.9321 5.92992 -165.478 4.72865 75.4798 -9.27031 6.30892 -77.7158 -25.4779 -3.55692 15.6538 3.47165 84.9115 -3.4057 -0.0015592 -1.93167 172.206 -19.486 1.10681 -0.602645 -5.7168 8.19216 0.760723 90 -9.54166e-015 7.95139e-016 -10.8068 -4.2024 171.004 -63.7136 -0.243407 -0.318215 -2.13755 6.20438 0.871752 90 7.95139e-016 -2.78299e-015 
-57.5026 90.435 -92.1902 47.349 -81.1982 -38.3788 1.66746 2.38695 0.351496 3.32458 4.78352 0.634274 3.32457 4.78353 0.634254 -13.5 6.39475 -8.92874 59.7878 6.19449 2.51628 -166.779 5.32188 -93.6046 -3.43705 3.81885 80.0035 -15.9292 1.49461 -10.8838 4.16566 -74.9094 6.1134 -166.758 3.61735 74.6478 -10.1366 6.0658 -77.8231 -26.1188 -3.71365 15.9854 3.46543 84.9503 -3.40717 -1.49314 -1.65639 173.557 -19.2902 1.08544 -0.658595 -7.02897 8.66736 1.01606 90 5.56597e-015 7.95139e-016 -5.78549 -6.4499 172.645 -61.6405 -0.261598 -0.428916 -4.79614 6.37799 1.29797 90 1.19271e-014 1.19271e-014 
-56.7564 90.4524 -89.8351 51.5466 -81.0075 -34.9169 1.51197 2.50687 0.339233 3.01333 5.02226 0.613131 3.01333 5.02226 0.613116 -12.295 4.39692 -10.7309 60.9016 3.6892 6.96841 -168.234 3.03235 -94.8619 -0.147436 4.19267 79.0523 -15.818 1.47865 -10.7276 4.15545 -74.6845 6.11444 -168.2 1.38527 73.4305 -10.782 6.1718 -78.0084 -26.4549 -3.7966 16.1524 3.61871 85.184 -3.53147 -3.91111 -1.5631 174.563 -20.0121 1.06206 -0.695867 -7.9212 9.13616 1.25277 90 1.51076e-014 2.06736e-014 -0.718149 -7.58864 174.485 -57.1318 -0.295108 -0.528055 -7.84848 5.41694 1.55259 90 5.56597e-015 -3.97569e-016 
-55.867 90.3391 -87.1898 56.6378 -81.1532 -31.2418 1.25581 2.62497 0.433814 2.49563 5.25925 0.811311 2.49564 5.25925 0.811296 -9.8882 1.46341 -12.3493 60.6337 -0.0481824 12.3828 -171.176 0.199656 -95.9168 1.57068 4.80596 78.3337 -16.0816 1.51628 -10.8147 4.14878 -75.8643 6.19355 -171.101 -1.43293 72.4441 -11.192 6.47514 -78.2127 -26.5315 -3.80935 16.1908 3.05991 84.4695 -2.97357 -7.50334 -1.85429 176.261 -21.8463 1.02781 -0.725203 -8.59971 9.2161 1.41846 90 8.15017e-015 7.15625e-015 4.38204 -7.49199 177.573 -49.8317 -0.359404 -0.597015 -9.86521 4.73104 1.6841 90 -5.56597e-015 7.95139e-016 
-54.9171 90.0764 -84.3002 60.7211 -81.8796 -28.5835 1.04985 2.76991 0.548188 2.07673 5.54979 1.04741 2.07672 5.54978 1.0474 -7.16313 -1.76949 -13.9153 60.2876 -3.83403 18.4516 -174.634 -2.72649 -97.1935 2.49079 5.61041 78.2682 -16.5968 1.59255 -11.0832 4.46913 -76.5691 6.35648 -174.492 -4.35931 71.2267 -11.4529 7.47378 -78.188 -26.0903 -3.68848 15.9572 2.32866 83.0548 -2.24638 -11.2032 -2.46235 178.02 -23.4766 0.985202 -0.767462 -9.1822 8.85951 1.48074 90 1.64991e-014 2.06736e-014 9.06202 -5.66185 -179.485 -40.1097 -0.41241 -0.590688 -13.8259 4.66405 2.24982 90 0 9.93923e-016 
